<?xml version="1.0" standalone="no"?><!-- Generator: Gravit.io --><svg xmlns="http://www.w3.org/2000/svg" xmlns:xlink="http://www.w3.org/1999/xlink" style="isolation:isolate" viewBox="807 56 15.1 13.213" width="15.1" height="13.213"><path d=" M 811.204 56 C 810.019 56 808.941 56.41 808.18 57.159 C 807.418 57.906 807 58.975 807 60.204 C 807 62.282 808.273 63.831 809.724 65.138 C 811.174 66.443 812.866 67.598 814.014 68.955 C 814.14 69.113 814.328 69.207 814.529 69.213 L 814.571 69.213 C 814.773 69.207 814.961 69.113 815.086 68.955 C 816.234 67.598 817.926 66.443 819.376 65.137 C 820.827 63.832 822.1 62.282 822.1 60.204 C 822.1 58.975 821.661 57.906 820.899 57.158 C 820.137 56.41 819.081 56 817.896 56 C 816.722 56 815.759 56.641 815.086 57.222 C 814.757 57.507 814.74 57.585 814.55 57.802 C 814.363 57.585 814.344 57.507 814.014 57.222 C 813.343 56.641 812.378 56 811.204 56 Z  M 811.204 57.373 C 811.85 57.373 812.571 57.804 813.113 58.274 C 813.435 58.552 813.73 58.861 813.992 59.196 C 814.121 59.376 814.33 59.483 814.55 59.483 C 814.77 59.483 814.979 59.376 815.108 59.196 C 815.108 59.196 815.443 58.743 815.987 58.273 C 816.532 57.804 817.247 57.373 817.896 57.373 C 818.778 57.373 819.473 57.673 819.955 58.145 C 820.438 58.617 820.727 59.284 820.727 60.204 C 820.727 61.724 819.808 62.888 818.453 64.108 C 817.255 65.188 815.792 66.295 814.55 67.604 C 813.306 66.29 811.847 65.188 810.646 64.108 C 809.292 62.888 808.373 61.724 808.373 60.204 C 808.373 59.284 808.662 58.616 809.145 58.145 C 809.627 57.673 810.319 57.373 811.204 57.373 Z " fill="rgb(255,255,255)"/></svg>