<?xml version="1.0" standalone="no"?><!-- Generator: Gravit.io --><svg xmlns="http://www.w3.org/2000/svg" xmlns:xlink="http://www.w3.org/1999/xlink" style="isolation:isolate" viewBox="1291.249 54.845 14.925 16" width="14.925" height="16"><path d=" M 1305.856 64.436 C 1305.636 65.565 1303.891 66.8 1301.886 67.04 C 1300.84 67.164 1299.811 67.279 1298.714 67.229 C 1296.919 67.147 1295.502 66.8 1295.502 66.8 C 1295.502 66.975 1295.513 67.141 1295.535 67.297 C 1295.768 69.068 1297.291 69.175 1298.734 69.224 C 1300.19 69.274 1301.487 68.865 1301.487 68.865 L 1301.547 70.181 C 1301.547 70.181 1300.528 70.728 1298.714 70.829 C 1297.713 70.884 1296.471 70.804 1295.024 70.421 C 1291.885 69.59 1291.346 66.245 1291.263 62.851 C 1291.238 61.843 1291.253 60.892 1291.253 60.098 C 1291.253 56.627 1293.528 55.609 1293.528 55.609 C 1294.674 55.083 1296.642 54.861 1298.687 54.845 L 1298.738 54.845 C 1300.783 54.861 1302.752 55.083 1303.899 55.609 C 1303.899 55.609 1306.173 56.627 1306.173 60.098 C 1306.173 60.098 1306.201 62.659 1305.856 64.436 Z  M 1303.49 60.367 L 1303.49 64.57 L 1301.825 64.57 L 1301.825 60.49 C 1301.825 59.631 1301.463 59.194 1300.74 59.194 C 1299.94 59.194 1299.539 59.712 1299.539 60.736 L 1299.539 62.968 L 1297.883 62.968 L 1297.883 60.736 C 1297.883 59.712 1297.482 59.194 1296.682 59.194 C 1295.959 59.194 1295.597 59.631 1295.597 60.49 L 1295.597 64.57 L 1293.932 64.57 L 1293.932 60.367 C 1293.932 59.508 1294.15 58.825 1294.59 58.32 C 1295.043 57.815 1295.636 57.557 1296.372 57.557 C 1297.224 57.557 1297.87 57.884 1298.296 58.539 L 1298.711 59.234 L 1299.126 58.539 C 1299.552 57.884 1300.198 57.557 1301.05 57.557 C 1301.786 57.557 1302.379 57.815 1302.832 58.32 C 1303.272 58.825 1303.49 59.508 1303.49 60.367 Z " fill-rule="evenodd" fill="rgb(255,255,255)"/></svg>