<?xml version="1.0" standalone="no"?><!-- Generator: Gravit.io --><svg xmlns="http://www.w3.org/2000/svg" xmlns:xlink="http://www.w3.org/1999/xlink" style="isolation:isolate" viewBox="1330.318 54.845 19.682 16" width="19.682" height="16"><path d=" M 1350 56.743 C 1349.263 57.069 1348.481 57.284 1347.681 57.378 C 1348.524 56.874 1349.155 56.08 1349.456 55.144 C 1348.664 55.615 1347.796 55.946 1346.892 56.124 C 1345.642 54.788 1343.65 54.459 1342.037 55.323 C 1340.424 56.186 1339.592 58.026 1340.011 59.807 C 1336.764 59.645 1333.738 58.111 1331.688 55.588 C 1331.329 56.205 1331.141 56.905 1331.142 57.619 C 1331.142 59.019 1331.854 60.255 1332.938 60.979 C 1332.297 60.959 1331.67 60.786 1331.109 60.474 L 1331.109 60.525 C 1331.109 62.447 1332.464 64.103 1334.348 64.484 C 1333.754 64.647 1333.13 64.671 1332.524 64.554 C 1333.053 66.199 1334.569 67.326 1336.297 67.358 C 1334.867 68.481 1333.1 69.09 1331.282 69.087 C 1330.956 69.087 1330.635 69.068 1330.318 69.031 C 1332.165 70.217 1334.314 70.847 1336.508 70.845 C 1343.936 70.845 1347.997 64.692 1347.997 59.355 C 1347.997 59.181 1347.992 59.006 1347.985 58.833 C 1348.775 58.261 1349.458 57.554 1350 56.743 Z " fill="rgb(255,255,255)"/></svg>