<?xml version="1.0" standalone="no"?><!-- Generator: Gravit.io --><svg xmlns="http://www.w3.org/2000/svg" xmlns:xlink="http://www.w3.org/1999/xlink" style="isolation:isolate" viewBox="1250.249 54.155 16.435 16" width="16.435" height="16"><path d=" M 1258.466 54.155 C 1253.928 54.155 1250.249 57.829 1250.249 62.358 C 1250.251 65.893 1252.515 69.029 1255.868 70.146 C 1256.279 70.22 1256.57 69.8 1256.57 69.484 C 1256.57 69.292 1256.575 69.06 1256.57 68.378 C 1254.283 68.871 1253.567 67.272 1253.567 67.272 C 1253.192 66.324 1252.738 66.052 1252.738 66.052 C 1251.992 65.544 1252.792 65.559 1252.792 65.559 C 1253.617 65.613 1254.041 66.324 1254.041 66.324 C 1254.674 67.43 1256.101 67.323 1256.57 67.114 C 1256.57 66.611 1256.624 66.244 1256.762 66.013 C 1254.181 65.558 1252.772 64.066 1252.777 62.003 C 1252.782 60.783 1253.202 59.834 1253.883 59.133 C 1253.588 58.759 1253.384 57.474 1253.992 56.684 C 1255.518 56.684 1256.427 57.785 1256.427 57.785 C 1256.427 57.785 1257.143 57.474 1258.463 57.474 C 1259.785 57.474 1260.495 57.77 1260.495 57.77 C 1260.495 57.77 1261.41 56.684 1262.935 56.684 C 1263.542 57.474 1263.34 58.757 1263.104 59.109 C 1263.756 59.795 1264.155 60.743 1264.155 62.003 C 1264.155 64.067 1262.752 65.559 1260.176 66.008 C 1260.337 66.254 1260.363 66.601 1260.363 67.114 L 1260.363 69.484 C 1260.363 69.8 1260.65 70.225 1261.069 70.146 C 1264.421 69.028 1266.682 65.891 1266.684 62.358 C 1266.684 57.829 1263.005 54.155 1258.466 54.155 Z " fill="rgb(255,255,255)"/></svg>