<?xml version="1.0" standalone="no"?><!-- Generator: Gravit.io --><svg xmlns="http://www.w3.org/2000/svg" xmlns:xlink="http://www.w3.org/1999/xlink" style="isolation:isolate" viewBox="-97 -155 1867 869" width="1867" height="869"><g><g style="mix-blend-mode:overlay;opacity:0.1;"><rect x="778" y="-57.545" width="5" height="641" transform="matrix(1,0,0,1,0,0)" fill="rgb(235,235,235)"/><rect x="766" y="-57.545" width="3" height="637" transform="matrix(1,0,0,1,0,0)" fill="rgb(235,235,235)"/><rect x="756" y="-57.545" width="1" height="637" transform="matrix(1,0,0,1,0,0)" fill="rgb(235,235,235)"/><rect x="1133.771" y="-98.29" width="3.438" height="766.42" transform="matrix(0.707,-0.707,0.707,0.707,131.108,886.363)" fill="rgb(235,235,235)"/><path d=" M 774.274 529.25 L 700 537 L 296 -25 L 330 -18 L 371.98 29 L 350.134 29 C 350.102 28.998 350.069 28.997 350.036 28.997 C 348.925 28.982 348.013 29.811 348 30.846 C 347.993 31.381 348.228 31.866 348.609 32.213 L 348.485 32.317 L 725.662 527.339 L 728 525.362 L 352.648 32.734 L 375.315 32.734 L 402.351 63.003 L 397.179 63.003 C 397.146 63.002 397.112 63.001 397.078 63 C 395.945 62.987 395.014 63.775 395 64.76 C 394.993 65.268 395.232 65.73 395.621 66.059 L 395.495 66.158 L 774.274 529.25 Z  M 777.891 528.872 L 815 525 L 405.524 66.556 L 399.746 66.556 L 777.891 528.872 Z " fill-rule="evenodd" fill="rgb(235,235,235)"/><path d=" M 1015.632 -57.368 L 1018.295 -54.705 L 360.59 603 L 332.541 574.951 L 1010.396 -57.407 L 1009.444 -58.428 L 328.027 570.436 L 318 560.41 L 1009 -64 L 1014.851 -58.149 L 356.047 587.72 L 359.503 591.215 L 1015.632 -57.368 Z " fill-rule="evenodd" fill="rgb(235,235,235)"/><path d=" M 851.057 295.017 C 851.004 297.74 850.988 300.472 851.008 303.211 L 851.008 303.211 L 856.268 302.855 C 856.251 300.185 856.27 297.522 856.323 294.869 L 851.057 295.017 Z  M 851.143 291.576 C 853.383 218.803 881.655 152.393 927.034 101.488 L 927.034 101.488 L 930.861 105.101 C 886.403 155.025 858.684 220.107 856.413 291.427 L 851.143 291.576 Z  M 1449.857 274.658 C 1449.607 271.794 1449.317 268.941 1448.987 266.101 L 1448.987 266.101 L 1443.73 266.457 C 1444.054 269.229 1444.34 272.012 1444.587 274.807 L 1449.857 274.658 Z  M 1450.136 278.089 C 1450.62 284.477 1450.904 290.922 1450.982 297.417 C 1451.842 369.439 1427.195 435.872 1385.44 488.111 L 1381.601 484.487 C 1422.457 433.216 1446.563 368.082 1445.72 297.479 C 1445.642 291.013 1445.357 284.597 1444.87 278.238 L 1450.136 278.089 Z  M 852.388 329.978 C 852.653 332.735 852.955 335.481 853.294 338.216 L 853.294 338.216 L 858.476 337.24 C 858.149 334.573 857.857 331.896 857.601 329.207 L 852.388 329.978 L 852.388 329.978 L 852.388 329.978 L 852.388 329.978 Z  M 851.053 306.654 C 851.105 309.403 851.193 312.143 851.318 314.873 L 851.318 314.873 L 856.56 314.309 C 856.441 311.648 856.358 308.977 856.31 306.298 L 851.053 306.654 L 851.053 306.654 Z  M 1448.57 262.683 C 1448.207 259.839 1447.804 257.007 1447.362 254.189 L 1447.362 254.189 L 1442.123 254.753 C 1442.557 257.502 1442.953 260.265 1443.31 263.04 L 1448.57 262.683 L 1448.57 262.683 Z  M 853.738 341.634 C 854.111 344.391 854.523 347.135 854.971 349.867 L 854.971 349.867 L 860.111 348.686 C 859.677 346.022 859.278 343.346 858.916 340.659 L 853.738 341.634 L 853.738 341.634 L 853.738 341.634 L 853.738 341.634 L 853.738 341.634 Z  M 851.495 318.312 C 851.652 321.067 851.847 323.812 852.078 326.546 L 852.078 326.546 L 857.294 325.776 C 857.072 323.11 856.885 320.434 856.734 317.749 L 851.495 318.312 L 851.495 318.312 L 851.495 318.312 Z  M 1446.808 250.79 C 1446.333 247.97 1445.817 245.163 1445.263 242.371 L 1445.263 242.371 L 1440.05 243.141 C 1440.593 245.865 1441.099 248.603 1441.566 251.354 L 1446.808 250.79 L 1446.808 250.79 L 1446.808 250.79 Z  M 1444.574 238.996 C 1443.986 236.204 1443.36 233.426 1442.695 230.663 L 1442.695 230.663 L 1437.516 231.639 C 1438.167 234.334 1438.781 237.043 1439.357 239.767 L 1444.574 238.996 L 1444.574 238.996 L 1444.574 238.996 L 1444.574 238.996 Z  M 1441.87 227.317 C 1441.172 224.557 1440.436 221.812 1439.662 219.083 L 1439.662 219.083 L 1434.526 220.263 C 1435.283 222.925 1436.004 225.602 1436.688 228.294 L 1441.87 227.317 L 1441.87 227.317 L 1441.87 227.317 L 1441.87 227.317 L 1441.87 227.317 Z  M 855.549 353.267 C 856.033 356.019 856.555 358.757 857.113 361.482 L 857.113 361.482 L 862.202 360.099 C 861.661 357.441 861.155 354.77 860.685 352.087 L 855.549 353.267 L 855.549 353.267 L 855.549 353.267 L 855.549 353.267 L 855.549 353.267 L 855.549 353.267 Z  M 1438.702 215.771 C 1437.896 213.046 1437.051 210.338 1436.17 207.646 L 1436.17 207.646 L 1431.084 209.028 C 1431.946 211.653 1432.773 214.294 1433.563 216.952 L 1438.702 215.771 L 1438.702 215.771 L 1438.702 215.771 L 1438.702 215.771 L 1438.702 215.771 L 1438.702 215.771 Z  M 857.826 364.859 C 887.421 501.205 1009.69 602.709 1154.585 600.979 C 1236.078 600.005 1309.636 566.556 1363.091 513.093 L 1359.263 509.48 C 1306.755 561.942 1234.531 594.761 1154.522 595.717 C 1012.076 597.418 891.887 497.563 862.911 363.476 L 857.826 364.859 L 857.826 364.859 L 857.826 364.859 L 857.826 364.859 L 857.826 364.859 L 857.826 364.859 L 857.826 364.859 Z  M 1435.077 204.373 C 1394.398 84.858 1280.444 -0.568 1147.418 1.021 C 1071.757 1.925 1002.935 30.823 950.693 77.741 L 950.693 77.741 L 954.532 81.365 C 1005.819 35.442 1073.304 7.169 1147.481 6.283 C 1278.057 4.724 1389.931 88.501 1429.988 205.756 L 1435.077 204.373 L 1435.077 204.373 L 1435.077 204.373 L 1435.077 204.373 L 1435.077 204.373 L 1435.077 204.373 L 1435.077 204.373 Z " fill-rule="evenodd" fill="rgb(235,235,235)"/><path d=" M -28.889 76.52 C -28.913 77.738 -28.92 78.96 -28.911 80.185 L -28.911 80.185 L -26.558 80.026 C -26.566 78.831 -26.557 77.64 -26.533 76.453 L -28.889 76.52 Z  M -28.85 74.98 C -27.849 42.428 -15.202 12.721 5.097 -10.05 L 5.097 -10.05 L 6.809 -8.433 C -13.078 13.899 -25.478 43.011 -26.493 74.914 L -28.85 74.98 Z  M 238.966 67.413 C 238.854 66.132 238.724 64.855 238.577 63.585 L 238.577 63.585 L 236.225 63.744 C 236.37 64.984 236.498 66.229 236.608 67.479 L 238.966 67.413 Z  M 239.091 68.948 C 239.307 71.805 239.434 74.688 239.469 77.593 C 239.854 109.81 228.829 139.527 210.151 162.894 L 208.433 161.273 C 226.709 138.339 237.492 109.203 237.115 77.621 C 237.081 74.729 236.953 71.859 236.735 69.014 L 239.091 68.948 Z  M -28.294 92.158 C -28.175 93.392 -28.04 94.62 -27.889 95.844 L -27.889 95.844 L -25.57 95.407 C -25.717 94.214 -25.848 93.016 -25.962 91.814 L -28.294 92.158 L -28.294 92.158 L -28.294 92.158 L -28.294 92.158 Z  M -28.891 81.725 C -28.868 82.955 -28.828 84.18 -28.772 85.402 L -28.772 85.402 L -26.427 85.149 C -26.481 83.959 -26.518 82.764 -26.539 81.566 L -28.891 81.725 L -28.891 81.725 Z  M 238.39 62.056 C 238.228 60.784 238.048 59.517 237.85 58.256 L 237.85 58.256 L 235.506 58.509 C 235.7 59.739 235.877 60.974 236.037 62.216 L 238.39 62.056 L 238.39 62.056 Z  M -27.69 97.373 C -27.523 98.606 -27.339 99.833 -27.138 101.055 L -27.138 101.055 L -24.839 100.527 C -25.033 99.335 -25.212 98.138 -25.373 96.936 L -27.69 97.373 L -27.69 97.373 L -27.69 97.373 L -27.69 97.373 L -27.69 97.373 Z  M -28.693 86.94 C -28.623 88.173 -28.536 89.4 -28.432 90.623 L -28.432 90.623 L -26.099 90.279 C -26.199 89.086 -26.282 87.889 -26.35 86.688 L -28.693 86.94 L -28.693 86.94 L -28.693 86.94 Z  M 237.602 56.736 C 237.389 55.475 237.159 54.219 236.911 52.97 L 236.911 52.97 L 234.579 53.315 C 234.822 54.533 235.048 55.758 235.257 56.988 L 237.602 56.736 L 237.602 56.736 L 237.602 56.736 Z  M 236.602 51.46 C 236.34 50.211 236.06 48.969 235.762 47.733 L 235.762 47.733 L 233.446 48.17 C 233.737 49.375 234.011 50.587 234.269 51.805 L 236.602 51.46 L 236.602 51.46 L 236.602 51.46 L 236.602 51.46 Z  M 235.393 46.236 C 235.081 45.002 234.752 43.774 234.406 42.553 L 234.406 42.553 L 232.108 43.081 C 232.447 44.271 232.769 45.469 233.075 46.673 L 235.393 46.236 L 235.393 46.236 L 235.393 46.236 L 235.393 46.236 L 235.393 46.236 Z  M -26.88 102.576 C -26.663 103.807 -26.43 105.032 -26.18 106.251 L -26.18 106.251 L -23.904 105.632 C -24.146 104.443 -24.372 103.249 -24.582 102.048 L -26.88 102.576 L -26.88 102.576 L -26.88 102.576 L -26.88 102.576 L -26.88 102.576 L -26.88 102.576 Z  M 233.976 41.071 C 233.615 39.852 233.238 38.641 232.843 37.437 L 232.843 37.437 L 230.568 38.055 C 230.954 39.23 231.324 40.411 231.677 41.6 L 233.976 41.071 L 233.976 41.071 L 233.976 41.071 L 233.976 41.071 L 233.976 41.071 L 233.976 41.071 Z  M -25.861 107.761 C -12.623 168.752 42.07 214.157 106.885 213.382 C 143.338 212.947 176.242 197.984 200.153 174.069 L 198.441 172.453 C 174.953 195.921 142.646 210.601 106.857 211.029 C 43.138 211.79 -10.625 167.122 -23.586 107.143 L -25.861 107.761 L -25.861 107.761 L -25.861 107.761 L -25.861 107.761 L -25.861 107.761 L -25.861 107.761 L -25.861 107.761 Z  M 232.354 35.973 C 214.158 -17.489 163.184 -55.701 103.679 -54.99 C 69.834 -54.586 39.049 -41.659 15.68 -20.672 L 15.68 -20.672 L 17.397 -19.051 C 40.339 -39.593 70.526 -52.24 103.707 -52.636 C 162.117 -53.334 212.16 -15.859 230.078 36.592 L 232.354 35.973 L 232.354 35.973 L 232.354 35.973 L 232.354 35.973 L 232.354 35.973 L 232.354 35.973 L 232.354 35.973 Z " fill-rule="evenodd" fill="rgb(235,235,235)"/><path d=" M 1284.754 83.582 C 1282.906 82.128 1281.035 80.695 1279.139 79.282 L 1279.139 79.282 L 1276.76 83.002 C 1278.606 84.381 1280.43 85.78 1282.229 87.198 L 1284.754 83.582 Z  M 1287.08 85.432 C 1336.052 124.837 1367.657 178.419 1380.057 235.42 L 1380.057 235.42 L 1375.66 236.11 C 1363.477 180.238 1332.51 127.719 1284.553 89.051 L 1287.08 85.432 Z  M 1000.038 496.52 C 1002.134 497.844 1004.242 499.135 1006.362 500.393 L 1006.362 500.393 L 1008.739 496.675 C 1006.67 495.45 1004.611 494.192 1002.565 492.902 L 1000.038 496.52 Z  M 997.537 494.921 C 992.899 491.92 988.321 488.754 983.812 485.424 C 933.81 448.493 900.381 397.335 885.255 342.074 L 889.665 341.382 C 904.572 395.535 937.378 445.653 986.394 481.856 C 990.884 485.171 995.442 488.321 1000.062 491.305 L 997.537 494.921 Z  M 1260.027 66.269 C 1257.997 65.011 1255.956 63.784 1253.905 62.587 L 1253.905 62.587 L 1251.991 66.578 C 1253.99 67.746 1255.979 68.945 1257.957 70.173 L 1260.027 66.269 L 1260.027 66.269 L 1260.027 66.269 L 1260.027 66.269 Z  M 1276.747 77.519 C 1274.829 76.122 1272.899 74.755 1270.957 73.417 L 1270.957 73.417 L 1268.73 77.233 C 1270.621 78.539 1272.501 79.873 1274.369 81.237 L 1276.747 77.519 L 1276.747 77.519 Z  M 1008.922 501.893 C 1011.061 503.13 1013.211 504.334 1015.372 505.504 L 1015.372 505.504 L 1017.597 501.691 C 1015.488 500.55 1013.389 499.378 1011.301 498.173 L 1008.922 501.893 L 1008.922 501.893 Z  M 1251.331 61.105 C 1249.247 59.921 1247.153 58.768 1245.049 57.647 L 1245.049 57.647 L 1243.297 61.715 C 1245.347 62.811 1247.388 63.937 1249.419 65.093 L 1251.331 61.105 L 1251.331 61.105 L 1251.331 61.105 L 1251.331 61.105 L 1251.331 61.105 Z  M 1268.502 71.744 C 1266.527 70.415 1264.541 69.117 1262.544 67.848 L 1262.544 67.848 L 1260.472 71.754 C 1262.417 72.993 1264.353 74.261 1266.276 75.558 L 1268.502 71.744 L 1268.502 71.744 L 1268.502 71.744 Z  M 1017.987 506.903 C 1020.166 508.052 1022.354 509.167 1024.553 510.249 L 1024.553 510.249 L 1026.623 506.345 C 1024.477 505.291 1022.341 504.205 1020.214 503.087 L 1017.987 506.903 L 1017.987 506.903 L 1017.987 506.903 Z  M 1027.22 511.543 C 1029.435 512.603 1031.659 513.629 1033.892 514.621 L 1033.892 514.621 L 1035.804 510.633 C 1033.625 509.667 1031.454 508.668 1029.292 507.637 L 1027.22 511.543 L 1027.22 511.543 L 1027.22 511.543 L 1027.22 511.543 Z  M 1036.607 515.809 C 1038.855 516.778 1041.112 517.713 1043.376 518.614 L 1043.376 518.614 L 1045.126 514.548 C 1042.917 513.671 1040.714 512.761 1038.52 511.818 L 1036.607 515.809 L 1036.607 515.809 L 1036.607 515.809 L 1036.607 515.809 L 1036.607 515.809 Z  M 1242.42 56.264 C 1240.285 55.156 1238.14 54.081 1235.985 53.037 L 1235.985 53.037 L 1234.399 57.177 C 1236.498 58.197 1238.589 59.248 1240.67 60.33 L 1242.42 56.264 L 1242.42 56.264 L 1242.42 56.264 L 1242.42 56.264 L 1242.42 56.264 L 1242.42 56.264 Z  M 1046.135 519.694 C 1048.413 520.571 1050.698 521.414 1052.99 522.224 L 1052.99 522.224 L 1054.576 518.087 C 1052.339 517.299 1050.109 516.479 1047.886 515.626 L 1046.135 519.694 L 1046.135 519.694 L 1046.135 519.694 L 1046.135 519.694 L 1046.135 519.694 L 1046.135 519.694 Z  M 1233.306 51.757 C 1124.695 0.634 993.832 29.924 922.738 128.181 C 882.753 183.443 869.079 250.287 879.21 314.047 L 883.606 313.357 C 873.692 250.754 887.134 185.135 926.391 130.879 C 996.284 34.283 1124.973 5.532 1231.72 55.894 L 1233.306 51.757 L 1233.306 51.757 L 1233.306 51.757 L 1233.306 51.757 L 1233.306 51.757 L 1233.306 51.757 L 1233.306 51.757 Z  M 1055.789 523.194 C 1158.344 558.104 1273.992 526.027 1339.262 435.819 C 1376.386 384.511 1390.829 323.22 1384.598 263.683 L 1384.598 263.683 L 1380.189 264.376 C 1386.211 322.752 1372.004 382.82 1335.609 433.121 C 1271.54 521.668 1158.065 553.205 1057.375 519.054 L 1055.789 523.194 L 1055.789 523.194 L 1055.789 523.194 L 1055.789 523.194 L 1055.789 523.194 L 1055.789 523.194 L 1055.789 523.194 Z " fill-rule="evenodd" fill="rgb(235,235,235)"/><path d=" M 200.244 467.116 L 188.91 455.782 L 188.91 455.782 L 199.338 446.098 C 202.516 443.147 202.676 438.196 199.695 435.049 L 174.886 412.81 L 178.433 409.53 C 181.342 406.84 181.489 402.327 178.76 399.458 L 146.921 371.041 L 146.921 371.041 C 144.191 368.172 139.613 368.026 136.704 370.716 L 133.346 373.485 L 108.761 351.482 L 108.761 351.482 C 106.062 348.637 101.534 348.492 98.657 351.16 L 90.792 357.664 L -97 169.872 L -70 155 L 254.007 378.728 L 250.802 380.502 C 245.897 383.546 245.714 388.607 250.394 391.797 L 304.057 432.374 C 308.737 435.564 316.519 435.683 321.424 432.639 L 326.664 428.898 L 326.664 428.898 L 555 586.564 L 406.128 673 L 254.678 521.55 L 269.887 508.043 C 273.859 504.516 274.057 498.595 270.328 494.829 L 226.836 457.535 L 226.836 457.535 C 223.107 453.77 216.855 453.577 212.883 457.105 L 200.244 467.116 Z  M 203.017 469.889 L 251.962 518.834 L 264.895 507.347 C 268.542 504.109 268.724 498.673 265.301 495.216 L 226.105 462.262 L 226.105 462.262 C 222.683 458.805 216.943 458.628 213.296 461.867 L 203.017 469.889 Z  M 186.687 453.559 L 159.844 426.716 L 159.844 426.716 L 172.505 415.011 L 195.674 435.374 C 198.411 438.264 198.264 442.809 195.346 445.518 L 186.687 453.559 L 186.687 453.559 Z  M 146.682 413.554 L 157.813 424.686 L 157.813 424.686 L 157.813 424.686 L 170.338 413.106 L 164.338 407.832 L 164.338 407.832 C 161.601 404.942 157.011 404.796 154.093 407.505 L 146.682 413.554 L 146.682 413.554 Z  M 144.404 411.276 L 131.026 397.898 L 131.026 397.898 L 139.923 389.649 C 142.801 386.981 142.946 382.506 140.247 379.66 L 135.592 375.495 L 137.005 374.346 C 139.676 371.877 143.879 372.01 146.385 374.644 L 146.385 374.644 L 175.078 399.754 C 177.584 402.388 177.449 406.531 174.778 409.001 L 172.739 410.886 L 164.923 403.879 L 164.923 403.879 C 161.942 400.732 156.942 400.573 153.765 403.524 L 144.404 411.276 L 144.404 411.276 Z  M 323.461 426.686 L 257.224 380.949 L 257.02 381.06 C 252.517 383.855 252.349 388.501 256.646 391.43 L 304.915 428.33 C 309.212 431.259 316.356 431.368 320.859 428.573 L 323.461 426.686 L 323.461 426.686 L 323.461 426.686 Z  M 120.712 387.584 L 129.015 395.887 L 129.015 395.887 L 136.309 389.124 C 138.951 386.675 139.084 382.566 136.606 379.954 L 133.479 377.211 L 120.712 387.584 L 120.712 387.584 L 120.712 387.584 L 120.712 387.584 Z  M 118.695 385.567 L 92.856 359.728 L 98.955 354.76 C 101.596 352.311 105.753 352.443 108.23 355.055 L 108.23 355.055 L 131.226 375.233 L 118.695 385.567 L 118.695 385.567 L 118.695 385.567 L 118.695 385.567 Z " fill-rule="evenodd" fill="rgb(235,235,235)"/><path d=" M -54.673 170.677 L -49.064 170.81 L 477.411 596.652 L 467.58 594.007 L -54.673 170.677 Z " fill="rgb(142,142,142)"/></g><g style="mix-blend-mode:overlay;opacity:0.05;"><rect x="768.917" y="-147.389" width="5.688" height="755.806" transform="matrix(1,0,0,1,0,0)" fill="rgb(235,235,235)"/><rect x="784.843" y="-147.389" width="3.413" height="751.09" transform="matrix(1,0,0,1,0,0)" fill="rgb(235,235,235)"/><rect x="798.494" y="-147.389" width="1.138" height="751.09" transform="matrix(1,0,0,1,0,0)" fill="rgb(235,235,235)"/><rect x="365.936" y="-187.264" width="3.983" height="887.355" transform="matrix(0.694,0.72,-0.695,0.72,290.615,-193.019)" fill="rgb(235,235,235)"/><path d=" M 778.844 544.503 L 863.337 553.642 L 1322.925 -109.015 L 1284.247 -100.761 L 1236.491 -45.343 L 1261.343 -45.343 C 1261.38 -45.346 1261.417 -45.347 1261.455 -45.347 C 1262.718 -45.364 1263.755 -44.387 1263.77 -43.166 C 1263.778 -42.536 1263.512 -41.964 1263.078 -41.555 L 1263.218 -41.432 L 834.144 542.251 L 831.485 539.919 L 1258.483 -40.94 L 1232.697 -40.94 L 1201.941 -5.25 L 1207.825 -5.25 C 1207.863 -5.252 1207.901 -5.253 1207.939 -5.254 C 1209.229 -5.269 1210.288 -4.34 1210.303 -3.179 C 1210.311 -2.58 1210.039 -2.035 1209.597 -1.647 L 1209.74 -1.53 L 778.844 544.503 Z  M 774.729 544.058 L 732.514 539.493 L 1198.332 -1.061 L 1204.905 -1.061 L 774.729 544.058 Z " fill-rule="evenodd" fill="rgb(235,235,235)"/><path d=" M 504.276 -147.181 L 501.246 -144.04 L 1249.448 631.463 L 1281.357 598.389 L 510.232 -147.226 L 511.316 -148.43 L 1286.492 593.066 L 1297.898 581.244 L 511.821 -155 L 505.164 -148.101 L 1254.616 613.446 L 1250.685 617.567 L 504.276 -147.181 Z " fill-rule="evenodd" fill="rgb(235,235,235)"/><path d=" M 691.496 268.319 C 691.556 271.53 691.575 274.75 691.551 277.981 L 691.551 277.981 L 685.568 277.56 C 685.587 274.412 685.566 271.273 685.505 268.143 L 691.496 268.319 Z  M 691.397 264.261 C 688.849 178.454 656.687 100.15 605.065 40.127 L 605.065 40.127 L 600.711 44.388 C 651.286 103.253 682.82 179.992 685.403 264.086 L 691.397 264.261 Z  M 10.304 244.313 C 10.589 240.936 10.919 237.572 11.294 234.223 L 11.294 234.223 L 17.274 234.643 C 16.905 237.911 16.58 241.194 16.299 244.489 L 10.304 244.313 Z  M 9.986 248.359 C 9.436 255.891 9.113 263.49 9.025 271.148 C 8.046 356.07 36.085 434.401 83.584 495.996 L 87.952 491.723 C 41.474 431.27 14.051 354.47 15.011 271.222 C 15.099 263.597 15.423 256.032 15.978 248.534 L 9.986 248.359 Z  M 689.982 309.541 C 689.68 312.792 689.337 316.03 688.951 319.255 L 688.951 319.255 L 683.056 318.104 C 683.428 314.96 683.761 311.802 684.052 308.632 L 689.982 309.541 L 689.982 309.541 L 689.982 309.541 L 689.982 309.541 Z  M 691.5 282.04 C 691.442 285.281 691.341 288.512 691.199 291.731 L 691.199 291.731 L 685.235 291.066 C 685.371 287.928 685.466 284.779 685.52 281.62 L 691.5 282.04 L 691.5 282.04 Z  M 11.768 230.193 C 12.181 226.84 12.639 223.501 13.143 220.178 L 13.143 220.178 L 19.102 220.843 C 18.609 224.085 18.158 227.342 17.752 230.614 L 11.768 230.193 L 11.768 230.193 Z  M 688.446 323.285 C 688.021 326.535 687.553 329.771 687.043 332.993 L 687.043 332.993 L 681.196 331.6 C 681.69 328.459 682.143 325.304 682.555 322.135 L 688.446 323.285 L 688.446 323.285 L 688.446 323.285 L 688.446 323.285 L 688.446 323.285 Z  M 690.998 295.786 C 690.819 299.035 690.597 302.271 690.334 305.495 L 690.334 305.495 L 684.4 304.586 C 684.653 301.443 684.866 298.288 685.038 295.122 L 690.998 295.786 L 690.998 295.786 L 690.998 295.786 Z  M 13.772 216.17 C 14.313 212.845 14.9 209.536 15.53 206.243 L 15.53 206.243 L 21.46 207.152 C 20.842 210.364 20.267 213.592 19.736 216.835 L 13.772 216.17 L 13.772 216.17 L 13.772 216.17 Z  M 16.314 202.264 C 16.983 198.971 17.695 195.696 18.451 192.439 L 18.451 192.439 L 24.343 193.589 C 23.602 196.767 22.904 199.961 22.249 203.172 L 16.314 202.264 L 16.314 202.264 L 16.314 202.264 L 16.314 202.264 Z  M 19.39 188.493 C 20.184 185.239 21.021 182.002 21.902 178.784 L 21.902 178.784 L 27.745 180.176 C 26.883 183.314 26.063 186.471 25.285 189.645 L 19.39 188.493 L 19.39 188.493 L 19.39 188.493 L 19.39 188.493 L 19.39 188.493 Z  M 686.386 337.001 C 685.835 340.246 685.242 343.475 684.606 346.688 L 684.606 346.688 L 678.817 345.057 C 679.433 341.923 680.008 338.774 680.543 335.61 L 686.386 337.001 L 686.386 337.001 L 686.386 337.001 L 686.386 337.001 L 686.386 337.001 L 686.386 337.001 Z  M 22.993 174.879 C 23.911 171.666 24.872 168.473 25.874 165.299 L 25.874 165.299 L 31.66 166.929 C 30.679 170.024 29.739 173.138 28.841 176.271 L 22.993 174.879 L 22.993 174.879 L 22.993 174.879 L 22.993 174.879 L 22.993 174.879 L 22.993 174.879 Z  M 683.796 350.669 C 650.129 511.436 511.036 631.12 346.204 629.079 C 253.498 627.931 169.819 588.491 109.009 525.453 L 113.363 521.193 C 173.096 583.052 255.258 621.748 346.276 622.875 C 508.322 624.881 645.047 507.141 678.01 349.039 L 683.796 350.669 L 683.796 350.669 L 683.796 350.669 L 683.796 350.669 L 683.796 350.669 L 683.796 350.669 L 683.796 350.669 Z  M 27.118 161.44 C 73.393 20.519 203.028 -80.207 354.357 -78.333 C 440.429 -77.267 518.72 -43.194 578.151 12.128 L 578.151 12.128 L 573.783 16.401 C 515.44 -37.747 438.669 -71.084 354.285 -72.129 C 205.742 -73.968 78.476 24.815 32.907 163.071 L 27.118 161.44 L 27.118 161.44 L 27.118 161.44 L 27.118 161.44 L 27.118 161.44 L 27.118 161.44 L 27.118 161.44 Z " fill-rule="evenodd" fill="rgb(235,235,235)"/><path d=" M 198.124 19.015 C 200.226 17.301 202.356 15.61 204.512 13.944 L 204.512 13.944 L 207.218 18.33 C 205.118 19.957 203.044 21.606 200.996 23.278 L 198.124 19.015 Z  M 195.479 21.196 C 139.768 67.659 103.814 130.837 89.709 198.047 L 89.709 198.047 L 94.71 198.861 C 108.569 132.983 143.798 71.057 198.353 25.463 L 195.479 21.196 Z  M 522.016 505.912 C 519.631 507.473 517.233 508.995 514.821 510.478 L 514.821 510.478 L 512.117 506.095 C 514.471 504.649 516.813 503.167 519.142 501.646 L 522.016 505.912 Z  M 524.861 504.027 C 530.137 500.487 535.344 496.755 540.474 492.828 C 597.356 449.283 635.385 388.962 652.592 323.804 L 647.575 322.988 C 630.617 386.84 593.297 445.934 537.537 488.621 C 532.429 492.531 527.244 496.244 521.989 499.763 L 524.861 504.027 Z  M 226.253 -1.399 C 228.563 -2.882 230.885 -4.329 233.219 -5.74 L 233.219 -5.74 L 235.395 -1.035 C 233.121 0.343 230.859 1.756 228.609 3.204 L 226.253 -1.399 L 226.253 -1.399 L 226.253 -1.399 L 226.253 -1.399 Z  M 207.234 11.866 C 209.415 10.218 211.611 8.606 213.819 7.029 L 213.819 7.029 L 216.353 11.528 C 214.201 13.068 212.063 14.642 209.938 16.249 L 207.234 11.866 L 207.234 11.866 Z  M 511.909 512.247 C 509.476 513.706 507.03 515.125 504.572 516.505 L 504.572 516.505 L 502.04 512.008 C 504.44 510.664 506.828 509.281 509.203 507.86 L 511.909 512.247 L 511.909 512.247 Z  M 236.147 -7.488 C 238.517 -8.884 240.899 -10.244 243.293 -11.566 L 243.293 -11.566 L 245.285 -6.769 C 242.953 -5.477 240.632 -4.149 238.322 -2.786 L 236.147 -7.488 L 236.147 -7.488 L 236.147 -7.488 L 236.147 -7.488 L 236.147 -7.488 Z  M 216.613 5.057 C 218.859 3.49 221.119 1.958 223.391 0.462 L 223.391 0.462 L 225.748 5.068 C 223.534 6.529 221.333 8.024 219.145 9.553 L 216.613 5.057 L 216.613 5.057 L 216.613 5.057 Z  M 501.597 518.154 C 499.119 519.509 496.629 520.824 494.128 522.1 L 494.128 522.1 L 491.772 517.497 C 494.214 516.254 496.644 514.973 499.063 513.654 L 501.597 518.154 L 501.597 518.154 L 501.597 518.154 Z  M 491.094 523.626 C 488.574 524.875 486.044 526.084 483.503 527.254 L 483.503 527.254 L 481.328 522.552 C 483.808 521.413 486.277 520.236 488.737 519.02 L 491.094 523.626 L 491.094 523.626 L 491.094 523.626 L 491.094 523.626 Z  M 480.415 528.655 C 477.857 529.798 475.29 530.9 472.714 531.963 L 472.714 531.963 L 470.723 527.169 C 473.237 526.134 475.742 525.062 478.238 523.95 L 480.415 528.655 L 480.415 528.655 L 480.415 528.655 L 480.415 528.655 L 480.415 528.655 Z  M 246.283 -13.196 C 248.712 -14.502 251.153 -15.771 253.603 -17.001 L 253.603 -17.001 L 255.408 -12.12 C 253.02 -10.917 250.642 -9.678 248.274 -8.402 L 246.283 -13.196 L 246.283 -13.196 L 246.283 -13.196 L 246.283 -13.196 L 246.283 -13.196 L 246.283 -13.196 Z  M 469.576 533.236 C 466.985 534.27 464.385 535.265 461.777 536.219 L 461.777 536.219 L 459.973 531.341 C 462.518 530.412 465.055 529.445 467.584 528.439 L 469.576 533.236 L 469.576 533.236 L 469.576 533.236 L 469.576 533.236 L 469.576 533.236 L 469.576 533.236 Z  M 256.652 -18.51 C 380.207 -78.79 529.076 -44.254 609.952 71.601 C 655.439 136.762 670.994 215.578 659.469 290.757 L 654.468 289.943 C 665.746 216.128 650.455 138.757 605.796 74.783 C 526.287 -39.114 379.89 -73.015 258.455 -13.632 L 256.652 -18.51 L 256.652 -18.51 L 256.652 -18.51 L 256.652 -18.51 L 256.652 -18.51 L 256.652 -18.51 L 256.652 -18.51 Z  M 458.594 537.363 C 341.928 578.526 210.367 540.703 136.116 434.339 C 93.884 373.842 77.454 301.573 84.542 231.373 L 84.542 231.373 L 89.559 232.189 C 82.707 301.021 98.869 371.847 140.272 431.157 C 213.156 535.564 342.245 572.75 456.789 532.482 L 458.594 537.363 L 458.594 537.363 L 458.594 537.363 L 458.594 537.363 L 458.594 537.363 L 458.594 537.363 L 458.594 537.363 Z " fill-rule="evenodd" fill="rgb(235,235,235)"/><path d=" M 1431.857 471.241 L 1444.751 457.877 L 1444.751 457.877 L 1432.888 446.459 C 1429.273 442.98 1429.091 437.142 1432.481 433.431 L 1460.704 407.209 L 1456.669 403.342 C 1453.359 400.17 1453.193 394.848 1456.297 391.465 L 1492.517 357.959 L 1492.517 357.959 C 1495.622 354.576 1500.83 354.404 1504.14 357.576 L 1507.959 360.841 L 1535.928 334.897 L 1535.928 334.897 C 1538.998 331.542 1544.149 331.372 1547.422 334.517 L 1556.369 342.186 L 1770 120.76 L 1739.285 103.224 L 1370.696 367.022 L 1374.343 369.115 C 1379.923 372.704 1380.13 378.671 1374.807 382.433 L 1313.759 430.277 C 1308.435 434.039 1299.583 434.179 1294.003 430.59 L 1288.042 426.178 L 1288.042 426.178 L 1028.288 612.083 L 1197.645 714 L 1369.933 535.425 L 1352.632 519.499 C 1348.113 515.339 1347.888 508.358 1352.13 503.918 L 1401.607 459.945 L 1401.607 459.945 C 1405.848 455.505 1412.96 455.277 1417.479 459.437 L 1431.857 471.241 Z  M 1428.703 474.511 L 1373.023 532.222 L 1358.31 518.678 C 1354.162 514.859 1353.955 508.45 1357.849 504.374 L 1402.437 465.518 L 1402.437 465.518 C 1406.331 461.442 1412.86 461.233 1417.009 465.052 L 1428.703 474.511 Z  M 1447.279 455.256 L 1477.815 423.606 L 1477.815 423.606 L 1463.412 409.804 L 1437.055 433.814 C 1433.943 437.221 1434.11 442.581 1437.429 445.775 L 1447.279 455.256 L 1447.279 455.256 Z  M 1492.789 408.086 L 1480.126 421.212 L 1480.126 421.212 L 1480.126 421.212 L 1465.877 407.558 L 1472.704 401.339 L 1472.704 401.339 C 1475.817 397.932 1481.039 397.76 1484.358 400.954 L 1492.789 408.086 L 1492.789 408.086 Z  M 1495.38 405.4 L 1510.599 389.626 L 1510.599 389.626 L 1500.478 379.9 C 1497.204 376.754 1497.039 371.477 1500.11 368.122 L 1505.405 363.21 L 1503.797 361.856 C 1500.759 358.944 1495.977 359.101 1493.127 362.207 L 1493.127 362.207 L 1460.485 391.814 C 1457.635 394.92 1457.788 399.806 1460.827 402.718 L 1463.146 404.94 L 1472.038 396.679 L 1472.038 396.679 C 1475.429 392.968 1481.116 392.78 1484.732 396.259 L 1495.38 405.4 L 1495.38 405.4 Z  M 1291.685 423.57 L 1367.037 369.641 L 1367.269 369.773 C 1372.391 373.067 1372.582 378.546 1367.695 381.999 L 1312.783 425.508 C 1307.896 428.962 1299.769 429.09 1294.646 425.795 L 1291.685 423.57 L 1291.685 423.57 L 1291.685 423.57 Z  M 1522.332 377.465 L 1512.887 387.255 L 1512.887 387.255 L 1504.589 379.281 C 1501.584 376.393 1501.433 371.548 1504.251 368.468 L 1507.808 365.234 L 1522.332 377.465 L 1522.332 377.465 L 1522.332 377.465 L 1522.332 377.465 Z  M 1524.627 375.086 L 1554.021 344.62 L 1547.083 338.761 C 1544.078 335.874 1539.35 336.03 1536.531 339.11 L 1536.531 339.11 L 1510.371 362.902 L 1524.627 375.086 L 1524.627 375.086 L 1524.627 375.086 L 1524.627 375.086 Z " fill-rule="evenodd" fill="rgb(235,235,235)"/><path d=" M 1721.85 121.709 L 1715.468 121.865 L 1116.553 623.977 L 1127.737 620.859 L 1721.85 121.709 Z " fill="rgb(142,142,142)"/></g></g></svg>