<?xml version="1.0" encoding="UTF-8" standalone="no"?>
<svg
   viewBox="0 0 24 24"
   fill="#ffffff"
   version="1.1"
   id="svg4"
   sodipodi:docname="email.svg"
   inkscape:version="1.2 (1:1.2.1+202207142221+cd75a1ee6d)"
   xmlns:inkscape="http://www.inkscape.org/namespaces/inkscape"
   xmlns:sodipodi="http://sodipodi.sourceforge.net/DTD/sodipodi-0.dtd"
   xmlns="http://www.w3.org/2000/svg"
   xmlns:svg="http://www.w3.org/2000/svg">
  <defs
     id="defs8" />
  <sodipodi:namedview
     id="namedview6"
     pagecolor="#ffffff"
     bordercolor="#000000"
     borderopacity="0.25"
     inkscape:showpageshadow="2"
     inkscape:pageopacity="0.0"
     inkscape:pagecheckerboard="0"
     inkscape:deskcolor="#d1d1d1"
     showgrid="false"
     inkscape:zoom="33.175093"
     inkscape:cx="4.3104627"
     inkscape:cy="13.850752"
     inkscape:current-layer="svg4" />
  <path
     id="path397"
     style="fill:#ffffff;stroke-width:1.30322;stroke-opacity:0.870588;stop-color:#000000"
     inkscape:transform-center-y="-2.7932554"
     d="M 2.7226562 4.1777344 C 2.2687366 4.3918072 2.6953125 4.7324219 2.6953125 4.7324219 L 11.511719 11.457031 C 11.972226 11.941228 12.357422 11.462891 12.357422 11.462891 L 21.351562 4.6699219 C 21.682054 4.3823482 21.332031 4.1875 21.332031 4.1875 L 2.7226562 4.1777344 z M 1.7773438 5.2480469 C 1.6266999 5.2440916 1.5351562 5.4101562 1.5351562 5.4101562 L 1.546875 18.669922 C 1.7609478 19.123841 2.1035156 18.697266 2.1035156 18.697266 L 10.044922 12.507812 C 10.529117 12.047304 10.050781 11.662109 10.050781 11.662109 L 2.015625 5.390625 C 1.9257582 5.2873464 1.8458182 5.2498447 1.7773438 5.2480469 z M 22.222656 5.2480469 C 22.154182 5.2498447 22.074242 5.2873464 21.984375 5.390625 L 13.949219 11.662109 C 13.949219 11.662109 13.470883 12.047304 13.955078 12.507812 L 21.896484 18.697266 C 21.896484 18.697266 22.239052 19.123841 22.453125 18.669922 L 22.464844 5.4101562 C 22.464844 5.4101563 22.3733 5.2440916 22.222656 5.2480469 z M 11.908203 12.326172 C 11.788445 12.333519 11.651721 12.391658 11.507812 12.542969 L 2.6933594 19.267578 C 2.6933594 19.267578 2.2667835 19.608193 2.7207031 19.822266 L 21.330078 19.8125 C 21.330078 19.8125 21.680101 19.617651 21.349609 19.330078 L 12.353516 12.537109 C 12.353516 12.537109 12.171672 12.310007 11.908203 12.326172 z " />
</svg>
