<?xml version="1.0" encoding="UTF-8" standalone="no"?>
<svg
   viewBox="0 0 24 24"
   fill="#ffffff"
   version="1.1"
   id="svg1339"
   sodipodi:docname="facebook.svg"
   inkscape:version="1.2 (1:1.2.1+202207142221+cd75a1ee6d)"
   xmlns:inkscape="http://www.inkscape.org/namespaces/inkscape"
   xmlns:sodipodi="http://sodipodi.sourceforge.net/DTD/sodipodi-0.dtd"
   xmlns="http://www.w3.org/2000/svg"
   xmlns:svg="http://www.w3.org/2000/svg">
  <defs
     id="defs1343" />
  <sodipodi:namedview
     id="namedview1341"
     pagecolor="#ffffff"
     bordercolor="#000000"
     borderopacity="0.25"
     inkscape:showpageshadow="2"
     inkscape:pageopacity="0.0"
     inkscape:pagecheckerboard="0"
     inkscape:deskcolor="#d1d1d1"
     showgrid="false"
     inkscape:zoom="23.458333"
     inkscape:cx="9.5914742"
     inkscape:cy="12"
     inkscape:current-layer="svg1339" />
  <path
     style="display:inline;fill:#ffffff;stroke-width:0.0115643"
     d="M 1.8562548,23.145781 C 1.6990229,23.117165 1.5100217,23.040374 1.3789545,22.951685 1.1411375,22.791025 0.9525528,22.523002 0.8723643,22.231802 L 0.840487,22.116194 V 11.997395 1.8786247 L 0.8715711,1.7664175 C 0.9716509,1.4046341 1.1977061,1.1261561 1.5228719,0.96458899 1.5928318,0.92973688 1.7020636,0.88695061 1.7657043,0.86966617 L 1.8813402,0.83793057 H 12.000145 22.118927 l 0.115635,0.0317356 c 0.451901,0.1243914 0.77724,0.45511943 0.900011,0.91480083 l 0.02494,0.094073 v 10.11877 10.118799 l -0.02494,0.09237 c -0.06415,0.239432 -0.171429,0.430467 -0.332278,0.591128 -0.156836,0.156694 -0.345477,0.264084 -0.581648,0.331352 l -0.09056,0.02551 -2.946035,0.0028 -2.945996,0.0028 v -4.325193 -4.325221 h 1.45029 1.450307 l 0.0059,-0.04336 c 0.01559,-0.09379 0.422959,-3.273619 0.422959,-3.296966 v -0.0255 h -1.665257 -1.665257 l 1.18e-4,-1.1593048 c 1.16e-4,-0.6948914 0.004,-1.2149269 0.01162,-1.2980905 0.02494,-0.2925889 0.07113,-0.4779578 0.166753,-0.6707502 0.163636,-0.3297928 0.445701,-0.5239459 0.889574,-0.6124363 0.244618,-0.048737 0.343141,-0.05242 1.390914,-0.05242 h 0.998338 V 5.8497415 4.3466177 l -0.02607,-0.00567 c -0.07307,-0.014168 -0.567031,-0.05752 -0.968518,-0.080755 -0.556381,-0.032302 -0.908561,-0.043353 -1.428208,-0.045053 -0.575468,-0.00113 -0.742881,0.0085 -1.127264,0.073955 -1.295118,0.2178974 -2.28542,0.9052235 -2.84901,1.9770862 -0.209086,0.3976557 -0.364891,0.8750465 -0.446789,1.3690983 -0.0756,0.4563094 -0.07347,0.4010279 -0.07832,2.0276929 l -0.004,1.4831179 H 11.309861 9.853354 v 1.682599 1.682627 h 1.457091 1.45713 v 4.325051 4.32508 l -5.4150027,-0.0011 c -4.3898113,-5.95e-4 -5.4306866,-0.0028 -5.4978721,-0.01417 z"
     id="path6583" />
</svg>
